<svg width="33" height="32" viewBox="0 0 33 32" fill="none" xmlns="http://www.w3.org/2000/svg">
<path d="M16.4965 0.800049C7.88334 0.800049 0.898447 7.7777 0.898447 16.3853C0.894927 19.652 1.9232 22.8373 3.83794 25.4908C5.75267 28.1444 8.45704 30.1321 11.5688 31.173C12.3488 31.3166 12.6335 30.8354 12.6335 30.4221C12.6335 30.0515 12.6199 29.0716 12.6121 27.7715C8.27334 28.7126 7.35684 25.6817 7.35684 25.6817C6.64899 23.881 5.62524 23.4017 5.62524 23.4017C4.20759 22.4354 5.73054 22.4548 5.73054 22.4548C7.29639 22.5654 8.11929 24.0615 8.11929 24.0615C9.51159 26.4423 11.7716 25.7554 12.6608 25.3557C12.8012 24.3487 13.2049 23.6618 13.6514 23.2717C10.1882 22.8778 6.54564 21.5409 6.54564 15.5703C6.54564 13.8686 7.15404 12.4773 8.15244 11.3868C7.99059 10.9929 7.45629 9.40763 8.30454 7.2635C8.30454 7.2635 9.61494 6.84437 12.5945 8.86044C13.8674 8.5143 15.1809 8.33812 16.5004 8.33653C17.82 8.33914 19.1334 8.51597 20.4062 8.86238C23.3839 6.84631 24.6923 7.26544 24.6923 7.26544C25.5425 9.41151 25.0082 10.9949 24.8483 11.3888C25.8487 12.4793 26.4512 13.8705 26.4512 15.5723C26.4512 21.5584 22.8047 22.8759 19.3298 23.262C19.8895 23.7433 20.3887 24.694 20.3887 26.1474C20.3887 28.2314 20.3692 29.9118 20.3692 30.4221C20.3692 30.8393 20.65 31.3244 21.4417 31.1711C24.5505 30.1277 27.2515 28.1392 29.1635 25.4863C31.0756 22.8334 32.1022 19.65 32.0984 16.3853C32.0984 7.7777 25.1135 0.800049 16.4965 0.800049Z" fill="#1E1E1E"/>
</svg>
