<svg width="70" height="70" viewBox="0 0 70 70" fill="none" xmlns="http://www.w3.org/2000/svg">
<path d="M1.6665 51.6665L20.7748 32.5582C22.3376 30.9959 24.4568 30.1183 26.6665 30.1183C28.8762 30.1183 30.9954 30.9959 32.5582 32.5582L51.6665 51.6665M43.3332 43.3332L49.9415 36.7248C51.5042 35.1626 53.6235 34.285 55.8332 34.285C58.0429 34.285 60.1621 35.1626 61.7248 36.7248L68.3332 43.3332M43.3332 18.3332H43.3748M9.99984 68.3332H59.9998C62.21 68.3332 64.3296 67.4552 65.8924 65.8924C67.4552 64.3296 68.3332 62.21 68.3332 59.9998V9.99984C68.3332 7.7897 67.4552 5.67008 65.8924 4.10728C64.3296 2.54448 62.21 1.6665 59.9998 1.6665H9.99984C7.7897 1.6665 5.67008 2.54448 4.10728 4.10728C2.54448 5.67008 1.6665 7.7897 1.6665 9.99984V59.9998C1.6665 62.21 2.54448 64.3296 4.10728 65.8924C5.67008 67.4552 7.7897 68.3332 9.99984 68.3332Z" stroke="black" stroke-opacity="0.58" stroke-width="2" stroke-linecap="round" stroke-linejoin="round"/>
</svg>
