<svg width="18" height="18" viewBox="0 0 18 18" fill="none" xmlns="http://www.w3.org/2000/svg">
<path d="M9.01248 0C4.04673 0 0.0214844 4.02525 0.0214844 8.99025C0.0214844 12.7995 2.38998 16.053 5.73498 17.3617C5.65623 16.65 5.58573 15.5595 5.76573 14.7825C5.92998 14.0797 6.82023 10.3148 6.82023 10.3148C6.82023 10.3148 6.55098 9.77475 6.55098 8.979C6.55098 7.73175 7.27623 6.79575 8.17698 6.79575C8.94498 6.79575 9.31548 7.3725 9.31548 8.06175C9.31548 8.8335 8.82573 9.987 8.57148 11.0557C8.35773 11.9505 9.02148 12.6795 9.90273 12.6795C11.4987 12.6795 12.7287 10.9957 12.7287 8.56425C12.7287 6.4185 11.1815 4.9125 8.97273 4.9125C6.41523 4.9125 4.91598 6.834 4.91598 8.81175C4.91598 9.5865 5.21148 10.419 5.58273 10.8675C5.65698 10.9575 5.66673 11.0363 5.64648 11.1263C5.57898 11.4075 5.42673 12.0255 5.39598 12.1485C5.35623 12.3173 5.26698 12.3518 5.09523 12.2723C3.97398 11.7548 3.27048 10.1138 3.27048 8.78775C3.27048 5.95575 5.33148 3.34875 9.21048 3.34875C12.329 3.34875 14.7545 5.574 14.7545 8.541C14.7545 11.6422 12.7992 14.1375 10.0797 14.1375C9.16923 14.1375 8.31423 13.6658 8.01123 13.1033L7.44948 15.2393C7.24773 16.023 6.69648 17.0033 6.32598 17.5988C7.16823 17.8575 8.05548 18 8.98848 18C13.9437 18 17.9772 13.9762 17.9772 9.00975C17.9772 4.0425 13.9437 0.0195 8.98848 0.0195L9.01248 0Z" fill="#0D0C22"/>
</svg>
