<svg width="78" height="78" viewBox="0 0 78 78" fill="none" xmlns="http://www.w3.org/2000/svg">
<path d="M22.8332 59.8332C17.6372 59.8366 12.6274 57.8983 8.78685 54.3985C4.94629 50.8988 2.55216 46.0901 2.07421 40.9162C1.59626 35.7422 3.06899 30.5764 6.20344 26.4323C9.33789 22.2882 13.9078 19.4649 19.0165 18.5165C19.9138 13.7401 22.4521 9.42748 26.1924 6.32441C29.9328 3.22134 34.6399 1.52295 39.4998 1.52295C44.3598 1.52295 49.0669 3.22134 52.8072 6.32441C56.5475 9.42748 59.0859 13.7401 59.9832 18.5165C65.0748 19.4842 69.6232 22.3143 72.7408 26.4545C75.8585 30.5947 77.3217 35.7479 76.845 40.9087C76.3682 46.0695 73.9858 50.8675 70.1624 54.3666C66.3391 57.8656 61.3492 59.8145 56.1665 59.8332M26.9998 38.9998L39.4998 26.4998M39.4998 26.4998L51.9998 38.9998M39.4998 26.4998V76.4998" stroke="black" stroke-opacity="0.44" stroke-width="2" stroke-linecap="round" stroke-linejoin="round"/>
</svg>
